<svg width="86" height="90" viewBox="0 0 86 90" fill="none" xmlns="http://www.w3.org/2000/svg">
<g id="Group">
<path id="Vector" d="M49.5344 36.459C49.5344 38.1977 51.2104 38.6243 53.0907 38.6243C55.0528 38.6243 58.4807 37.9063 58.4807 33.3259C57.4994 34.015 54.7666 34.0478 52.9682 34.3102C51.1692 34.6054 49.5344 34.7525 49.5344 36.459Z" fill="#EBB300"/>
<path id="Vector_2" d="M24.8552 24.3187H27.3032V26.6811H27.4109C28.7032 24.778 32.451 23.9146 34.6048 23.9146C40.0259 23.9146 43.2204 26.6485 43.2204 30.848V41.2823H38.1227V31.7012C38.1227 28.9121 35.2514 27.4804 32.8817 27.4804C30.1177 27.4804 27.5546 28.9451 27.5546 32.3902V41.2823H22.4566V27.4355H14.6168V41.2823H9.86376V27.4355H7.75003L0 76.7249L74.0254 89.4333L81.9697 38.9089C80.2038 40.76 77.4256 41.7417 73.9922 41.7417C67.749 41.7417 63.5469 38.1325 63.5469 33.0468C63.5469 27.764 67.3889 23.8596 74.1123 23.8596C78.4268 23.8596 82.4266 25.5007 83.548 28.8706L86 13.2753L11.9749 0.56665L8.24025 24.3187H9.86376V23.0063C9.86376 20.0204 12.5491 16.5539 18.4076 16.5539C22.3136 16.5539 27.1383 17.5891 27.1383 22.7648H22.6582C22.6582 20.9245 19.7861 20.2344 18.4076 20.2344C16.455 20.2344 14.6168 21.8906 14.6168 23.3013V24.3185H22.4566L24.8552 24.3187ZM63.2508 41.5121H58.2676V39.6416C56.428 41.1838 53.4991 41.7415 50.9242 41.7415C46.9184 41.7415 43.7299 40.1339 43.7299 36.6557C43.7299 32.8167 47.3269 31.8978 50.9242 31.5043C54.4802 31.0777 57.7915 31.1762 57.7915 29.2729C57.7915 27.2716 56.0744 26.9761 54.0307 26.9761C51.8235 26.9761 50.393 27.6979 50.1883 29.5353H44.3838C44.7109 25.1716 49.2304 23.8593 53.9722 23.8593C58.1825 23.8593 63.2508 25.3038 63.2508 29.3726V41.5121Z" fill="#EBB300"/>
<path id="Vector_3" d="M74.0721 27.3701C70.4303 27.3701 69.2295 30.3886 69.2295 32.8824C69.2295 35.3102 70.3902 38.2307 73.9518 38.2307C76.5934 38.2307 78.1142 36.8525 78.4743 34.7852H82.6175L83.3243 30.2901H78.2741C77.9141 28.3871 76.4333 27.3701 74.0721 27.3701Z" fill="#EBB300"/>
</g>
</svg>
