<svg width="39" height="40" viewBox="0 0 39 40" fill="none" xmlns="http://www.w3.org/2000/svg">
<g id="biblio / Settings">
<path id="Vector" d="M28.5195 20.0236C28.9258 20.0163 29.2369 19.6645 29.2061 19.259C29.1671 18.7439 29.0866 18.2345 28.9672 17.734C28.8713 17.3334 28.4586 17.0953 28.0661 17.2221L27.5616 17.3862C27.2829 16.529 26.8685 15.736 26.3485 15.0226L26.784 14.7058C27.1163 14.4636 27.1667 13.99 26.8994 13.6763C26.5679 13.288 26.2071 12.9264 25.8179 12.5933C25.5051 12.326 25.0314 12.3755 24.7885 12.7078L24.4692 13.145C23.7566 12.6266 22.9636 12.2138 22.1081 11.936L22.2746 11.4241C22.4022 11.0325 22.1641 10.6189 21.7636 10.523C21.2671 10.4036 20.7626 10.324 20.2523 10.2841C19.842 10.2516 19.4869 10.571 19.4869 10.9821V11.5224C18.5688 11.524 17.6873 11.676 16.8585 11.9481L16.7017 11.4363C16.5814 11.043 16.15 10.8415 15.7665 10.9918C15.2855 11.1803 14.8248 11.403 14.3885 11.6597C14.0326 11.8685 13.927 12.3349 14.1643 12.6729L14.5087 13.1612C13.7978 13.682 13.173 14.3076 12.6538 15.0194L12.1622 14.67C11.8259 14.4311 11.3587 14.5351 11.1482 14.8894C10.8874 15.3273 10.6616 15.788 10.4722 16.2682C10.3211 16.6509 10.5218 17.0831 10.9151 17.205L11.4448 17.3675C11.1726 18.1971 11.0207 19.0811 11.0207 20L10.4861 20.0057C10.0782 20.009 9.76294 20.3591 9.793 20.7654C9.82956 21.2691 9.90269 21.768 10.0124 22.258C10.1017 22.6585 10.5096 22.9023 10.9021 22.7836L11.4391 22.6203C11.7162 23.4702 12.1273 24.2583 12.6424 24.9676L12.1403 25.3211C11.8023 25.5591 11.7462 26.0361 12.0127 26.353C12.3442 26.7486 12.7082 27.1151 13.1023 27.449C13.4176 27.7163 13.8945 27.6635 14.135 27.3263L14.4909 26.8266C15.1969 27.3458 15.9826 27.7602 16.8309 28.0429L16.6643 28.5792C16.5473 28.957 16.7634 29.369 17.1477 29.4608C17.6434 29.5778 18.1577 29.6631 18.6858 29.7159C19.0782 29.7549 19.4187 29.4413 19.4357 29.0472L19.4593 28.4776C19.4731 28.4776 19.4861 28.4793 19.4991 28.4793C20.3945 28.4793 21.2566 28.3379 22.0674 28.0787L22.2381 28.6085C22.364 29.0009 22.7987 29.1967 23.1797 29.0399C23.6526 28.8465 24.1093 28.615 24.5464 28.3485C24.8982 28.1348 24.9989 27.6684 24.7584 27.3345L24.4326 26.8827C25.1541 26.3635 25.7895 25.7346 26.3176 25.0188L26.7604 25.3446C27.0928 25.5884 27.5599 25.4917 27.7769 25.1415C28.0466 24.7068 28.2806 24.2518 28.4789 23.7806C28.6381 23.4003 28.4456 22.964 28.0547 22.8348L27.5421 22.6658C27.8183 21.8363 27.9727 20.9531 27.9767 20.0325L28.5187 20.0236H28.5195ZM19.4999 26.8543C15.721 26.8543 12.6457 23.7798 12.6457 20C12.6457 16.2203 15.721 13.1466 19.4999 13.1466C23.2789 13.1466 26.3542 16.2211 26.3542 20C26.3542 23.779 23.2789 26.8543 19.4999 26.8543Z" fill="#C7B299"/>
<path id="Vector_2" d="M19.5 15.125C16.8114 15.125 14.625 17.3114 14.625 20C14.625 22.6886 16.8114 24.875 19.5 24.875C22.1886 24.875 24.375 22.6886 24.375 20C24.375 17.3114 22.1886 15.125 19.5 15.125ZM19.5 23.25C17.7076 23.25 16.25 21.7924 16.25 20C16.25 18.2076 17.7076 16.75 19.5 16.75C21.2924 16.75 22.75 18.2076 22.75 20C22.75 21.7924 21.2924 23.25 19.5 23.25Z" fill="#C7B299"/>
</g>
</svg>
