<svg width="39" height="40" viewBox="0 0 39 40" fill="none" xmlns="http://www.w3.org/2000/svg">
<g id="biblio / Whitelist">
<path id="Vector" d="M28.8438 12.2812H15.0312C14.5819 12.2812 14.2188 11.9181 14.2188 11.4688C14.2188 11.0194 14.5819 10.6562 15.0312 10.6562H28.8438C29.2931 10.6562 29.6562 11.0194 29.6562 11.4688C29.6562 11.9181 29.2931 12.2812 28.8438 12.2812Z" fill="#C7B299"/>
<path id="Vector_2" d="M22.3438 14.7188H15.0312C14.5819 14.7188 14.2188 14.3556 14.2188 13.9062C14.2188 13.4569 14.5819 13.0938 15.0312 13.0938H22.3438C22.7931 13.0938 23.1562 13.4569 23.1562 13.9062C23.1562 14.3556 22.7931 14.7188 22.3438 14.7188Z" fill="#C7B299"/>
<path id="Vector_3" d="M28.8438 19.5938H15.0312C14.5819 19.5938 14.2188 19.2306 14.2188 18.7812C14.2188 18.3319 14.5819 17.9688 15.0312 17.9688H28.8438C29.2931 17.9688 29.6562 18.3319 29.6562 18.7812C29.6562 19.2306 29.2931 19.5938 28.8438 19.5938Z" fill="#C7B299"/>
<path id="Vector_4" d="M22.3438 22.0312H15.0312C14.5819 22.0312 14.2188 21.6681 14.2188 21.2188C14.2188 20.7694 14.5819 20.4062 15.0312 20.4062H22.3438C22.7931 20.4062 23.1562 20.7694 23.1562 21.2188C23.1562 21.6681 22.7931 22.0312 22.3438 22.0312Z" fill="#C7B299"/>
<path id="Vector_5" d="M28.8438 26.9062H15.0312C14.5819 26.9062 14.2188 26.5431 14.2188 26.0938C14.2188 25.6444 14.5819 25.2812 15.0312 25.2812H28.8438C29.2931 25.2812 29.6562 25.6444 29.6562 26.0938C29.6562 26.5431 29.2931 26.9062 28.8438 26.9062Z" fill="#C7B299"/>
<path id="Vector_6" d="M22.3438 29.3438H15.0312C14.5819 29.3438 14.2188 28.9806 14.2188 28.5312C14.2188 28.0819 14.5819 27.7188 15.0312 27.7188H22.3438C22.7931 27.7188 23.1562 28.0819 23.1562 28.5312C23.1562 28.9806 22.7931 29.3438 22.3438 29.3438Z" fill="#C7B299"/>
<path id="Vector_7" d="M12.5938 12.6875C12.5938 11.7897 11.8666 11.0625 10.9688 11.0625C10.0709 11.0625 9.34375 11.7897 9.34375 12.6875C9.34375 13.5853 10.0709 14.3125 10.9688 14.3125C11.8666 14.3125 12.5938 13.5853 12.5938 12.6875Z" fill="#C7B299"/>
<path id="Vector_8" d="M12.5938 20C12.5938 19.1022 11.8666 18.375 10.9688 18.375C10.0709 18.375 9.34375 19.1022 9.34375 20C9.34375 20.8978 10.0709 21.625 10.9688 21.625C11.8666 21.625 12.5938 20.8978 12.5938 20Z" fill="#C7B299"/>
<path id="Vector_9" d="M12.5938 27.3125C12.5938 26.4147 11.8666 25.6875 10.9688 25.6875C10.0709 25.6875 9.34375 26.4147 9.34375 27.3125C9.34375 28.2103 10.0709 28.9375 10.9688 28.9375C11.8666 28.9375 12.5938 28.2103 12.5938 27.3125Z" fill="#C7B299"/>
</g>
</svg>
